<svg width="29" height="29" viewBox="0 0 29 29" fill="none" xmlns="http://www.w3.org/2000/svg">
<path d="M6.62367 12.4863H9.12985V14.903H6.62367V12.4863ZM24.1669 6.44466V23.3613C24.1669 24.6905 23.0391 25.778 21.6607 25.778H4.1175C3.45282 25.778 2.81537 25.5234 2.34537 25.0702C1.87537 24.617 1.61133 24.0023 1.61133 23.3613L1.62386 6.44466C1.62386 5.11549 2.72658 4.02799 4.1175 4.02799H5.37059V1.61133H7.87676V4.02799H17.9015V1.61133H20.4076V4.02799H21.6607C23.0391 4.02799 24.1669 5.11549 24.1669 6.44466ZM4.1175 8.86133H21.6607V6.44466H4.1175V8.86133ZM21.6607 23.3613V11.278H4.1175V23.3613H21.6607ZM16.6484 14.903H19.1545V12.4863H16.6484V14.903ZM11.636 14.903H14.1422V12.4863H11.636V14.903Z" fill="#7688A4"/>
</svg>
