<svg width="1400" height="662" viewBox="0 0 1400 662" fill="none" xmlns="http://www.w3.org/2000/svg">
<g opacity="0.4">
<path d="M-18 547.061C212.694 470.292 337.046 369.044 408.764 286.216C468.549 217.161 467.488 188.913 530.97 137.394C668.733 25.597 932.632 -51.4974 1060.53 44.5763C1123.54 91.9029 1100.23 151.878 1130.37 265.414C1157.48 367.548 1227.57 508.018 1423.27 660.68" stroke="#03544C" stroke-miterlimit="10"/>
<path d="M-17.5371 522.293C206.851 456.316 329.96 361.066 401.64 283.55C461.953 218.307 466.857 192.218 534.286 141.584C675.738 35.363 923.573 -38.5882 1051.65 51.055C1117.63 97.2252 1102.62 156.174 1137.93 269.378C1169.02 369.041 1240.54 507.109 1432.87 658.401" stroke="#03544C" stroke-miterlimit="10"/>
<path d="M-17.0771 497.529C201.001 442.341 322.962 353.065 394.526 280.884C455.491 219.393 466.115 195.52 537.612 145.774C682.442 45.0062 914.908 -25.8498 1042.79 57.531C1111.88 102.579 1104.91 160.413 1145.51 273.338C1180.45 370.507 1253.53 506.19 1442.49 656.106" stroke="#03544C" stroke-miterlimit="10"/>
<path d="M-16.6143 472.76C195.154 428.361 316.087 345.038 387.414 278.197C449.112 220.411 465.255 198.797 540.958 149.967C688.878 54.511 906.619 -13.3048 1033.94 64.0092C1106.28 107.932 1107.1 164.602 1153.1 277.301C1191.73 371.951 1266.53 505.27 1452.1 653.821" stroke="#03544C" stroke-miterlimit="10"/>
<path d="M-16.1553 447.995C189.324 414.391 309.35 337.011 380.299 275.547C442.837 221.375 464.32 202.042 544.257 154.156C695.01 63.8747 898.626 -0.966083 1025.05 70.487C1100.79 113.294 1109.13 168.764 1160.65 281.264C1202.84 373.388 1279.49 504.353 1461.68 651.518" stroke="#03544C" stroke-miterlimit="10"/>
<path d="M-15.6924 423.231C183.46 400.415 302.771 328.982 373.187 272.882C436.698 222.281 463.24 205.241 547.586 158.35C700.943 73.0854 890.965 11.1649 1016.18 76.9629C1095.47 118.628 1111.02 172.906 1168.22 285.228C1213.84 374.83 1292.47 503.434 1471.29 649.25" stroke="#03544C" stroke-miterlimit="10"/>
<path d="M-15.2334 398.465C177.609 386.455 296.371 320.986 366.072 270.215C430.698 223.138 462.085 208.383 550.907 162.539C706.68 82.1436 883.575 23.0746 1007.31 83.4407C1090.26 123.911 1112.82 177.047 1175.8 289.187C1224.71 376.284 1305.47 502.514 1480.9 646.96" stroke="#03544C" stroke-miterlimit="10"/>
<path d="M-14.75 373.697C171.783 372.465 290.195 313.029 358.981 267.548C424.888 223.969 460.888 211.458 554.252 166.729C712.272 91.0483 876.459 34.7691 998.466 89.9194C1085.22 129.131 1114.49 181.196 1183.39 293.151C1235.45 377.756 1318.44 501.584 1490.51 644.675" stroke="#03544C" stroke-miterlimit="10"/>
<path d="M-14.3066 348.933C165.916 358.489 284.195 305.148 351.85 264.879C419.233 224.786 459.547 214.437 557.562 170.923C717.702 99.8027 869.524 46.2446 989.579 96.3952C1080.26 134.265 1115.97 185.38 1190.95 297.115C1246.07 379.26 1331.42 500.679 1500.14 642.391" stroke="#03544C" stroke-miterlimit="10"/>
<path d="M-13.8467 324.178C160.07 344.523 278.433 297.378 344.735 262.223C413.754 225.63 458.173 217.381 560.883 175.122C723.012 108.422 862.763 57.5196 980.709 102.883C1075.4 139.301 1117.34 189.613 1198.52 301.087C1256.58 380.81 1344.4 499.768 1509.72 640.115" stroke="#03544C" stroke-miterlimit="10"/>
<path d="M-13.3838 299.4C154.244 330.537 272.898 289.72 337.628 259.547C408.497 226.509 456.751 220.199 564.212 179.306C728.254 116.881 856.163 68.5666 971.842 109.349C1070.66 144.189 1118.58 193.887 1206.1 305.042C1266.99 382.383 1357.39 498.84 1519.33 637.813" stroke="#03544C" stroke-miterlimit="10"/>
<path d="M-12.9248 274.635C148.372 316.564 267.571 282.236 330.512 256.881C403.436 227.501 455.297 222.93 567.533 183.496C733.43 125.216 849.679 79.4268 962.972 115.828C1066.01 148.931 1119.69 198.237 1213.67 309.001C1277.31 384.013 1370.36 497.923 1528.93 635.531" stroke="#03544C" stroke-miterlimit="10"/>
<path d="M-12.4609 249.866C142.526 302.587 262.432 274.943 323.402 254.21C398.572 228.649 453.777 225.568 570.862 187.684C738.569 133.423 843.284 90.0939 954.11 122.305C1061.42 153.497 1120.68 202.666 1221.25 312.963C1287.56 385.693 1383.35 497.002 1538.54 633.245" stroke="#03544C" stroke-miterlimit="10"/>
<path d="M-11.998 225.101C136.683 288.61 257.446 267.864 316.29 251.544C393.877 230.025 452.247 228.107 574.179 191.878C743.67 141.518 836.938 100.601 945.235 128.78C1056.93 157.862 1121.55 207.192 1228.81 316.927C1297.74 387.433 1396.33 496.093 1548.15 630.949" stroke="#03544C" stroke-miterlimit="10"/>
<path d="M-11.5391 200.337C130.832 274.638 252.556 261.015 309.158 248.878C389.287 231.7 450.681 230.551 577.495 196.068C748.763 149.5 830.613 110.906 936.356 135.259C1052.47 162.001 1122.31 211.819 1236.38 320.901C1307.84 389.242 1409.3 495.178 1557.73 628.685" stroke="#03544C" stroke-miterlimit="10"/>
<path d="M-11.0762 175.568C125.006 260.661 247.711 254.399 302.063 246.211C384.795 233.748 449.139 232.894 580.837 200.261C753.872 157.368 824.317 121.066 927.506 141.734C1048.07 165.888 1123 216.54 1243.97 324.85C1317.95 391.091 1422.3 494.247 1567.36 626.385" stroke="#03544C" stroke-miterlimit="10"/>
<path d="M-10.5938 150.804C119.158 246.686 243.427 235.602 294.971 243.542C379.28 256.534 447.6 235.139 584.185 204.451C759.008 165.165 817.978 131.077 918.637 148.213C1043.67 169.488 1123.6 221.403 1251.54 328.814C1328 393.003 1435.28 493.328 1576.96 624.087" stroke="#03544C" stroke-miterlimit="10"/>
<path d="M-10.1533 126.04C113.292 232.71 239.042 231.588 287.837 240.877C373.36 257.156 446.018 237.291 587.487 208.642C764.162 172.852 811.563 140.939 909.769 154.692C1039.25 172.804 1124.12 226.369 1259.12 332.785C1338.03 394.987 1448.26 492.419 1586.57 621.823" stroke="#03544C" stroke-miterlimit="10"/>
<path d="M-9.68555 101.271C107.45 218.736 234.09 227.967 280.73 238.21C367.793 257.326 444.473 239.346 590.821 212.817C769.35 180.472 805.076 150.687 900.907 161.15C1034.81 175.771 1124.59 231.44 1266.7 336.723C1348.05 396.997 1461.25 491.482 1596.18 619.513" stroke="#03544C" stroke-miterlimit="10"/>
<path d="M-9.22656 76.5066C101.599 204.761 227.054 229.893 273.619 235.544C365.34 246.652 442.944 241.316 594.146 217.014C774.584 188.029 798.468 160.337 892.04 167.636C1030.29 178.431 1125.01 236.677 1274.28 340.704C1358.07 399.108 1474.24 490.573 1605.79 617.245" stroke="#03544C" stroke-miterlimit="10"/>
<path d="M-8.76367 51.741C95.752 190.783 221.256 224.065 266.503 232.874C359.53 250.981 441.427 243.195 597.466 221.207C779.856 195.515 791.714 169.879 883.169 174.113C1025.68 180.709 1125.39 241.988 1281.84 344.657C1368.09 401.252 1487.22 489.646 1615.39 614.949" stroke="#03544C" stroke-miterlimit="10"/>
<path d="M-8.30469 26.9722C89.9051 176.807 215.06 218.231 259.388 230.207C353.185 255.558 439.935 244.993 600.791 225.403C785.185 202.947 784.799 179.346 874.303 180.595C1020.92 182.654 1125.74 247.443 1289.42 348.623C1378.11 403.444 1500.19 488.736 1625 612.669" stroke="#03544C" stroke-miterlimit="10"/>
</g>
</svg>
